<svg width="73" height="72" viewBox="0 0 73 72" fill="none" xmlns="http://www.w3.org/2000/svg">
<path d="M65.2258 30.3101C65.065 30.1811 63.5544 29.0355 60.3755 29.0355C59.5358 29.0384 58.6978 29.1106 57.8699 29.2514C57.2531 25.0018 53.7643 22.9325 53.6094 22.8396L52.7543 22.3447L52.1912 23.1605C51.4877 24.2571 50.9739 25.4658 50.6718 26.7353C50.1027 29.1614 50.4483 31.4377 51.6728 33.387C50.1951 34.2148 47.8235 34.4187 47.3439 34.4367H8.09112C7.59853 34.4375 7.12626 34.6344 6.77739 34.9844C6.42852 35.3345 6.23139 35.8092 6.22903 36.3051C6.18357 39.766 6.76615 43.2063 7.94811 46.4567C9.30073 50.0255 11.3118 52.6556 13.9276 54.263C16.8593 56.0714 21.6262 57.1031 27.0248 57.1031C29.4649 57.1121 31.899 56.8872 34.2974 56.4403C37.631 55.8228 40.839 54.6501 43.7895 52.9705C46.2201 51.5539 48.4073 49.7513 50.2666 47.6323C53.377 44.0874 55.2302 40.1438 56.6066 36.6349H57.1548C60.5602 36.6349 62.6547 35.2644 63.8077 34.1128C64.5763 33.381 65.1752 32.4873 65.5625 31.4977L65.8128 30.7779L65.2258 30.3101Z" fill="white"/>
<path d="M11.6527 33.1033H16.9397C17.0621 33.1033 17.1794 33.0551 17.2659 32.9693C17.3524 32.8835 17.401 32.7671 17.401 32.6458V27.9756C17.4014 27.9155 17.3899 27.8559 17.3671 27.8003C17.3442 27.7446 17.3106 27.6939 17.268 27.6512C17.2255 27.6084 17.1748 27.5744 17.119 27.551C17.0632 27.5277 17.0033 27.5155 16.9427 27.5151H11.6527C11.5304 27.5151 11.413 27.5633 11.3265 27.6491C11.24 27.7349 11.1914 27.8513 11.1914 27.9726V32.6488C11.1914 32.8983 11.3981 33.1033 11.6527 33.1033ZM18.9407 33.1033H24.2277C24.35 33.1033 24.4674 33.0551 24.5539 32.9693C24.6404 32.8835 24.689 32.7671 24.689 32.6458V27.9756C24.6898 27.9154 24.6785 27.8556 24.6558 27.7998C24.6332 27.744 24.5995 27.6931 24.5569 27.6503C24.5143 27.6075 24.4635 27.5735 24.4075 27.5502C24.3515 27.527 24.2914 27.5151 24.2307 27.5151H18.9407C18.8796 27.5147 18.8191 27.5263 18.7625 27.5493C18.706 27.5723 18.6547 27.6062 18.6115 27.6491C18.5683 27.6919 18.5341 27.7428 18.5109 27.7989C18.4877 27.8549 18.476 27.915 18.4764 27.9756V32.6488C18.4794 32.8983 18.6861 33.1033 18.9407 33.1033ZM26.3395 33.1033H31.6265C31.7489 33.1033 31.8662 33.0551 31.9527 32.9693C32.0392 32.8835 32.0878 32.7671 32.0878 32.6458V27.9756C32.0882 27.9155 32.0767 27.8559 32.0539 27.8003C32.031 27.7446 31.9974 27.6939 31.9548 27.6512C31.9123 27.6084 31.8616 27.5744 31.8058 27.551C31.75 27.5277 31.6901 27.5155 31.6295 27.5151H26.3395C26.2172 27.5151 26.0998 27.5633 26.0133 27.6491C25.9268 27.7349 25.8782 27.8513 25.8782 27.9726V32.6488C25.8782 32.8983 26.0849 33.1033 26.3395 33.1033ZM33.6485 33.1033H38.9355C39.0581 33.1033 39.1757 33.0552 39.2627 32.9695C39.3497 32.8838 39.399 32.7674 39.3998 32.6458V27.9756C39.4002 27.915 39.3884 27.8549 39.3652 27.7989C39.342 27.7428 39.3078 27.6919 39.2647 27.6491C39.2215 27.6062 39.1701 27.5723 39.1136 27.5493C39.0571 27.5263 38.9965 27.5147 38.9355 27.5151H33.6485C33.5261 27.5151 33.4088 27.5633 33.3223 27.6491C33.2358 27.7349 33.1872 27.8513 33.1872 27.9726V32.6488C33.1872 32.8983 33.3938 33.1033 33.6485 33.1033ZM18.9407 26.3832H24.2277C24.4823 26.3832 24.689 26.1752 24.689 25.9227V21.2525C24.689 21.1311 24.6404 21.0147 24.5539 20.9289C24.4674 20.8431 24.35 20.7949 24.2277 20.7949H18.9407C18.8181 20.7949 18.7004 20.843 18.6134 20.9288C18.5264 21.0145 18.4772 21.1308 18.4764 21.2525V25.9257C18.4794 26.1752 18.6861 26.3832 18.9407 26.3832ZM26.3395 26.3832H31.6265C31.8811 26.3832 32.0878 26.1752 32.0878 25.9227V21.2525C32.0878 21.1311 32.0392 21.0147 31.9527 20.9289C31.8662 20.8431 31.7489 20.7949 31.6265 20.7949H26.3395C26.2172 20.7949 26.0998 20.8431 26.0133 20.9289C25.9268 21.0147 25.8782 21.1311 25.8782 21.2525V25.9257C25.8782 26.1752 26.0849 26.3832 26.3395 26.3832ZM33.6485 26.3832H38.9355C39.1901 26.3832 39.3998 26.1752 39.3998 25.9227V21.2525C39.399 21.1308 39.3497 21.0145 39.2627 20.9288C39.1757 20.843 39.0581 20.7949 38.9355 20.7949H33.6485C33.5261 20.7949 33.4088 20.8431 33.3223 20.9289C33.2358 21.0147 33.1872 21.1311 33.1872 21.2525V25.9257C33.1872 26.1752 33.3938 26.3832 33.6485 26.3832ZM33.6485 19.6601H38.9355C39.0581 19.6601 39.1757 19.612 39.2627 19.5262C39.3497 19.4405 39.399 19.3242 39.3998 19.2025V14.5264C39.399 14.4048 39.3497 14.2884 39.2627 14.2027C39.1757 14.117 39.0581 14.0688 38.9355 14.0688H33.6485C33.5261 14.0688 33.4088 14.117 33.3223 14.2029C33.2358 14.2887 33.1872 14.405 33.1872 14.5264V19.1996C33.1872 19.4551 33.3938 19.6601 33.6485 19.6601ZM41.0263 33.1033H46.3133C46.4359 33.1033 46.5536 33.0552 46.6406 32.9695C46.7275 32.8838 46.7768 32.7674 46.7776 32.6458V27.9756C46.778 27.915 46.7663 27.8549 46.7431 27.7989C46.7199 27.7428 46.6857 27.6919 46.6425 27.6491C46.5993 27.6062 46.548 27.5723 46.4915 27.5493C46.4349 27.5263 46.3744 27.5147 46.3133 27.5151H41.0263C40.904 27.5151 40.7866 27.5633 40.7001 27.6491C40.6136 27.7349 40.565 27.8513 40.565 27.9726V32.6488C40.565 32.7087 40.5769 32.7681 40.6002 32.8234C40.6234 32.8788 40.6574 32.929 40.7003 32.9712C40.7432 33.0135 40.794 33.0469 40.85 33.0696C40.9059 33.0922 40.9659 33.1037 41.0263 33.1033Z" fill="white"/>
</svg>
