<svg width="72" height="72" viewBox="0 0 72 72" fill="none" xmlns="http://www.w3.org/2000/svg">
<g clip-path="url(#clip0_227_9149)">
<path d="M10.1562 57.2308L18.9036 1.36426C19.0106 0.679105 19.5444 0.138993 20.2294 0.0228527C20.9143 -0.0932877 21.5969 0.240846 21.9244 0.852342L30.9707 17.6929L34.5766 10.8405C34.8558 10.3107 35.4063 9.97894 36.0062 9.97894C36.6061 9.97894 37.1565 10.3107 37.4358 10.8405L61.8486 57.2307H10.1562V57.2308Z" fill="#F9F9F9"/>
<path d="M40.6178 35.3882L31.1329 17.5386L10.1562 57.2309L40.6178 35.3882Z" fill="#D1D1D1"/>
<path d="M61.8486 58.1031L55.1488 16.1316C55.0476 15.5288 54.6227 15.0337 54.0472 14.8471C53.4718 14.6604 52.8421 14.8158 52.4148 15.2479L10.1562 58.1025L33.539 71.3776C35.0073 72.2076 36.7956 72.2076 38.2639 71.3776L61.8486 58.1025V58.1031Z" fill="white"/>
<path d="M55.1524 16.0651C55.0512 15.4628 54.6266 14.968 54.0515 14.7815C53.4764 14.595 52.847 14.7503 52.4199 15.1821L44.0371 23.6886L37.4453 10.9865C37.1662 10.4495 36.616 10.1132 36.0165 10.1132C35.4169 10.1132 34.8668 10.4495 34.5876 10.9865L30.9838 17.9318L21.942 0.862983C21.6141 0.243021 20.9311 -0.0951005 20.2458 0.0234942C19.5604 0.142089 19.0286 0.690905 18.9229 1.38591L10.1844 58.0068H10.1562L10.1844 58.0395L10.4145 58.1538L52.4077 15.5993C52.8345 15.1652 53.4655 15.0091 54.0421 15.1951C54.6188 15.381 55.0442 15.8777 55.1443 16.4818L61.784 58.0475L61.8486 58.0067L55.1524 16.065L55.1524 16.0651ZM10.2611 57.9292L18.927 1.78634C19.0325 1.09134 19.5656 0.542525 20.2504 0.42393C20.9352 0.305335 21.6182 0.643347 21.9466 1.26342L30.9874 18.3326L34.5912 11.3872C34.8703 10.8502 35.4206 10.5139 36.0201 10.5139C36.6196 10.5139 37.1698 10.8502 37.449 11.3872L43.907 23.8193L10.2607 57.9292H10.2611Z" fill="white" fill-opacity="0.2"/>
<path opacity="0.2" d="M38.264 70.0879C36.7956 70.8932 35.0074 70.8932 33.539 70.0879L10.2128 57.2425L10.1562 57.5957L33.539 70.4729C35.0073 71.2782 36.7956 71.2782 38.2639 70.4729L61.8486 57.5957L61.788 57.2307L38.264 70.088V70.0879Z" fill="#585858"/>
<path d="M55.1487 15.8834C55.0475 15.2878 54.6225 14.7982 54.0472 14.6148C53.4718 14.4314 52.842 14.5839 52.4147 15.0109L44.0268 23.4207L37.432 10.8626C37.1527 10.3316 36.6022 9.99911 36.0024 9.99911C35.4026 9.99911 34.8521 10.3316 34.5728 10.8626L30.9665 17.7294L21.9203 0.853234C21.5922 0.24029 20.9089 -0.0940977 20.2237 0.0232608C19.5386 0.140619 19.0052 0.683029 18.8996 1.37031L10.1562 57.3504L33.539 70.4619C35.0073 71.2819 36.7956 71.2819 38.264 70.4619L61.8486 57.3504L55.1487 15.8833V15.8834Z" fill="url(#paint0_linear_227_9149)"/>
</g>
<defs>
<linearGradient id="paint0_linear_227_9149" x1="8.35219" y1="12.0973" x2="72.779" y2="46.1792" gradientUnits="userSpaceOnUse">
<stop stop-color="white" stop-opacity="0.1"/>
<stop offset="0.14" stop-color="white" stop-opacity="0.08"/>
<stop offset="0.61" stop-color="white" stop-opacity="0.02"/>
<stop offset="1" stop-color="white" stop-opacity="0"/>
</linearGradient>
<clipPath id="clip0_227_9149">
<rect width="72" height="72" fill="white"/>
</clipPath>
</defs>
</svg>
