<svg width="73" height="73" viewBox="0 0 73 73" fill="none" xmlns="http://www.w3.org/2000/svg">
<g clip-path="url(#clip0_227_9266)">
<path d="M51.132 30.6807C47.4963 12.8624 39.9185 8.119 37.9855 4.76587C37.1884 3.28874 36.4822 1.75332 35.8719 0.170166C35.7698 1.75307 35.5822 2.7503 34.3711 3.95068C31.9394 6.35933 21.6117 15.709 20.7425 35.9544C19.9327 54.8306 33.2336 66.4702 34.9909 67.6732C36.3421 68.4119 37.9878 67.6891 38.7905 67.0111C45.2023 62.1225 53.9627 49.0899 51.1391 30.6807" fill="#F0EFEF"/>
<path d="M36.4869 52.9143C36.1228 57.5961 35.862 60.3163 34.9375 62.9916C34.9375 62.9916 35.5444 67.4487 35.9705 72.1701H37.4786C37.8383 68.8453 38.3876 65.5449 39.1235 62.2858C37.1713 61.3024 36.5618 57.0224 36.4869 52.9143Z" fill="#B8C4C2"/>
<path d="M38.4793 66.3097C36.7318 65.3822 36.2263 61.0387 36.1486 56.9922C36.5807 50.3172 36.7067 43.6206 36.526 36.9304C36.4345 33.4199 36.5694 4.41638 35.7734 0.170166C36.3179 1.60832 36.9453 3.00317 37.6513 4.34544C39.5132 7.68775 46.8144 12.4122 50.314 30.1591C53.0405 48.463 44.6483 61.4092 38.4793 66.3097Z" fill="white"/>
</g>
<defs>
<clipPath id="clip0_227_9266">
<rect width="72" height="72" fill="white" transform="translate(0.613281 0.170166)"/>
</clipPath>
</defs>
</svg>
