<svg width="83" height="73" viewBox="0 0 83 73" fill="none" xmlns="http://www.w3.org/2000/svg">
<path d="M81.2096 70.7226L79.5087 69.2425C77.8968 67.3219 75.8233 65.6348 73.647 64.234C71.9116 63.1162 68.0156 61.6064 67.2912 59.7949L67.1579 59.6812C68.3888 59.5563 69.8257 59.1573 70.9617 58.8837C72.8694 58.4251 74.4442 58.5436 76.4143 58.0873C77.3025 57.8598 78.2993 57.6317 78.9495 57.4042V56.9491C78.2993 56.0326 77.3714 54.8191 76.2856 53.9896C73.4448 51.8193 70.407 49.6508 67.2145 47.8423C65.444 46.84 63.2866 46.1884 61.4107 45.3384C60.7794 45.0519 59.6864 44.9031 59.269 44.4271C58.2826 43.3 57.7553 41.8706 56.9945 40.5574C55.4022 37.8055 53.8417 34.8004 52.4307 31.905C51.4684 29.9308 50.8423 27.9846 49.642 26.2134C43.8811 17.7151 37.6814 12.5864 28.0765 7.5447C26.0316 6.47241 23.5712 6.04945 20.9704 5.49522C19.5763 5.41996 18.1803 5.34354 16.785 5.26711C15.9325 4.94858 15.0463 4.01339 14.2479 3.55951C11.0644 1.75564 2.90236 -2.1677 0.545358 2.9907C-0.94297 6.24664 2.76907 9.42265 4.0968 11.0731C5.02985 12.2294 6.22298 13.5274 6.88814 14.829C7.32704 15.6848 7.40181 16.543 7.77698 17.4479C8.69898 19.6776 9.50068 22.1034 10.6945 24.1634C11.2972 25.2065 11.9617 26.3044 12.7244 27.2367C13.1913 27.809 13.9923 28.061 14.1191 28.9443C13.3363 29.9279 13.2914 31.4552 12.8512 32.7014C10.8681 38.3107 11.6171 45.2835 14.5008 49.435C15.3851 50.7103 17.4696 53.4435 20.3364 52.3945C22.8436 51.4786 22.434 48.6386 23.1512 46.1335C23.3131 45.5665 23.0309 45.1487 23.6811 44.7678V44.8815C24.3313 46.2473 25.053 47.6136 25.8151 48.9793C27.5056 51.422 30.2944 53.9744 32.836 55.6966C34.154 56.5898 35.3848 58.1334 36.6853 58.6561V58.5972H36.829C36.4993 58.0138 35.9824 57.9164 35.5611 57.5448C34.5682 56.672 33.4635 55.5717 32.6436 54.5712C30.3314 51.7551 28.2885 48.666 26.4269 45.4574C25.5374 43.9254 24.7643 42.2318 24.0153 40.6729C23.7273 40.072 23.7305 39.1608 23.1284 38.8498C22.3072 39.9921 21.0985 40.915 20.4632 42.2644C19.4482 44.4207 19.3175 47.0506 18.9411 49.7768C18.718 49.848 18.8175 49.799 18.6868 49.89C16.9196 49.5079 16.2993 47.8761 15.6419 46.4754C13.9806 42.9342 13.6724 37.2326 15.1341 33.157C15.5125 32.1016 17.2219 28.7809 16.5294 27.8061C16.1991 26.8347 15.1094 26.2718 14.5001 25.5291C13.7452 24.6108 12.9923 23.402 12.4695 22.3414C11.1099 19.5814 10.476 16.4818 9.04424 13.6908C8.35957 12.3566 7.20285 11.006 6.25289 9.82053C5.2015 8.50614 4.02332 7.53828 3.20731 5.94969C2.91797 5.38496 2.52394 4.48069 2.95373 3.90021C3.09028 3.50875 3.28339 3.3454 3.71513 3.21764C4.45181 2.70833 6.49997 3.38682 7.26722 3.67211C9.30172 4.43052 11.0001 5.1306 12.7238 6.15504C13.5502 6.64743 14.3877 7.25767 15.3877 7.84106H16.5294C18.3156 7.84106 20.3163 7.97641 21.9853 8.43146C24.934 9.23597 27.5771 10.4979 29.9777 11.8578C37.29 16.001 43.2686 21.9039 47.3591 28.9385C48.0171 30.0714 48.3019 31.1548 48.8812 32.356C50.0503 34.7789 51.5237 37.2729 52.6869 39.6421C53.8482 42.0066 54.9795 44.3921 56.6207 46.3593C57.4835 47.3931 60.8152 47.9485 62.3295 48.5231C63.3913 48.9251 65.1306 49.3451 66.1358 49.8883C68.0559 50.9279 69.9161 52.1659 71.7185 53.3041C72.6184 53.8723 75.3857 55.1208 75.5242 56.1499C71.0618 56.0402 67.6541 56.4136 64.7405 57.5156C63.9128 57.8289 62.5915 57.8376 62.4563 58.7682C62.9114 59.1958 62.9823 59.8352 63.3438 60.3614C64.0389 61.3707 65.2138 62.7253 66.2619 63.4348C67.4076 64.2107 68.5871 65.0397 69.8147 65.7112C71.9987 66.9054 74.4357 67.588 76.5385 68.7845C77.7778 69.4904 79.112 70.3789 80.3195 71.1747C80.9177 71.5685 80.8988 72.1805 82.1992 72.4272V72.3141C81.5497 71.8503 81.5841 71.2097 81.2096 70.7226ZM18.8136 12.7807C17.8832 12.7649 17.179 12.8723 16.5288 13.0076V13.0928H16.6575C17.1016 13.6762 17.8851 14.4521 18.4333 15.1569L19.7025 17.5535L19.8279 17.4444C20.614 16.9467 20.9743 16.1545 20.9697 14.941C20.6557 14.6441 20.6082 14.2724 20.3364 13.9177C19.9736 13.4458 19.2707 13.178 18.8136 12.7807Z" fill="white"/>
</svg>
