<svg width="73" height="72" viewBox="0 0 73 72" fill="none" xmlns="http://www.w3.org/2000/svg">
<g clip-path="url(#clip0_227_9222)">
<g clip-path="url(#clip1_227_9222)">
<path fill-rule="evenodd" clip-rule="evenodd" d="M36.4956 10.2856C36.1494 10.2856 35.8212 10.3706 35.5289 10.4854C36.1584 10.955 36.5091 11.5744 36.6844 12.2837C36.6979 12.3836 36.7204 12.4485 36.7294 12.5434C36.7384 12.6383 36.7563 12.7083 36.7563 12.7932C36.8013 14.007 36.4731 14.1568 36.2348 14.8761C36.0658 15.3107 35.9935 15.784 36.0241 16.2561C36.0546 16.7282 36.187 17.1852 36.4101 17.5885C36.4498 17.6956 36.4996 17.7977 36.5585 17.8932C36.0864 14.4066 38.7031 13.8821 39.1887 12.7982C39.2247 11.7992 38.5143 11.2147 37.9613 10.7702C37.5225 10.4628 37.0143 10.3 36.4956 10.3006V10.2856ZM40.4386 11.0699C40.3936 11.3846 40.4251 11.3046 40.4116 11.4695L40.3847 11.8291L40.2947 12.1588C40.2673 12.2707 40.2343 12.3807 40.1958 12.4885L40.0609 12.8032C40.025 12.8531 39.998 12.9131 39.962 12.968L39.8856 13.0929L39.7057 13.3676C39.6293 13.4525 39.5709 13.5474 39.4809 13.6174C39.391 13.6873 39.3326 13.7822 39.2472 13.8521C38.9864 14.0719 38.6896 14.2368 38.4154 14.4516C38.3255 14.5215 38.2355 14.5764 38.1681 14.6514C38.1007 14.7263 38.0062 14.7912 37.9343 14.8711C37.8624 14.9511 37.7859 15.036 37.7095 15.1309C37.6331 15.2258 37.5746 15.3107 37.5297 15.4056L37.3498 15.6953L37.2149 16.01L37.116 16.3247L37.0261 16.6744C37.0126 16.7243 37.0126 16.7993 36.9991 16.8542C36.9856 16.9091 36.9856 16.9641 36.9721 17.019L36.9587 17.3687C36.9569 17.4522 36.9614 17.5358 36.9721 17.6184C36.9721 17.7283 36.9856 17.8382 37.0081 17.9681C37.0306 18.098 37.0441 18.1879 37.0711 18.2978L37.17 18.6275C37.197 18.6974 37.2329 18.7673 37.2599 18.8273L34.4094 17.5985L32.9707 17.1839L32.1884 16.9841C31.442 16.8195 30.6887 16.6961 29.9313 16.6144C29.1729 16.5215 28.4104 16.4749 27.6473 16.4746L26.0288 16.5445C25.268 16.6053 24.5102 16.7069 23.7583 16.8492L23.2008 16.9591L22.0857 17.2338L21.5282 17.3987L20.9887 17.6584L20.5841 17.8582L20.1794 18.078C20.1434 18.093 20.1165 18.108 20.0895 18.118L19.7028 18.3377C19.6129 18.3777 19.523 18.4376 19.4556 18.4776C19.4196 18.5076 19.3656 18.5276 19.3432 18.5475L19.0194 18.7473C18.907 18.8173 18.8081 18.8872 18.7227 18.9471L18.4754 19.1469L18.2057 19.3667L17.9943 19.5665C17.8595 19.6764 17.7965 19.7464 17.7336 19.8013L17.4638 20.091L17.2165 20.3508L17.0052 20.6005C16.9782 20.6305 16.9423 20.6505 16.9153 20.6854C16.8523 20.7704 16.7804 20.8503 16.704 20.9352L16.3713 21.3348L15.6969 22.0491C15.4776 22.2664 15.2464 22.4682 15.0045 22.6535L14.2581 23.178C14.0047 23.3327 13.7435 23.4711 13.4758 23.5926C13.215 23.7175 12.9363 23.8274 12.6665 23.9223C12.145 24.0471 11.6144 24.2819 11.1514 24.3219C11.0524 24.3219 10.94 24.3518 10.8366 24.3618L10.5219 24.4468L10.2252 24.5716C10.1263 24.6116 10.0273 24.6715 9.92843 24.7215C9.82951 24.7714 9.74859 24.8464 9.65866 24.9213C9.5707 24.992 9.488 25.0705 9.41138 25.1561C9.32146 25.226 9.23154 25.3209 9.1641 25.4058L8.95279 25.6805C8.88984 25.7904 8.8179 25.8803 8.77294 25.9952C8.72798 26.1101 8.64705 26.195 8.5931 26.3099L8.45822 26.6696L8.34582 27.0292L8.28287 27.3589C8.24691 27.5237 8.24691 27.6886 8.23791 27.7735C8.22892 27.8584 8.21094 27.9533 8.21094 28.0482C8.21094 28.0982 8.21094 28.1731 8.22443 28.228C8.23791 28.3279 8.2514 28.4079 8.26939 28.4878L8.35931 28.7375C8.39528 28.8374 8.44923 28.9174 8.49419 28.9973L8.65605 29.247L8.86736 29.4668C8.94379 29.5517 9.01573 29.6167 9.10115 29.6866C9.39789 29.9763 9.47433 30.0712 9.85649 30.286C9.91944 30.326 9.98238 30.356 10.0543 30.3959C10.1173 30.5957 10.1442 30.6956 10.1667 30.8105C10.1892 30.9254 10.2297 31.0453 10.2656 31.1402L10.3645 31.3899L10.5444 31.7596L10.7242 32.0493L10.9355 32.309C11.012 32.394 11.0839 32.4589 11.1693 32.5438L11.4166 32.7436C11.5035 32.8116 11.5953 32.8718 11.6909 32.9234C11.7808 32.9734 11.8707 33.0333 11.9741 33.0733C12.0506 33.1132 12.136 33.1432 12.2214 33.1732C12.3068 33.2032 12.3833 33.2231 12.4327 33.2431C12.3968 33.9924 12.3878 34.7416 12.4777 34.9415C12.5901 35.2162 13.1341 34.377 13.6826 33.413C13.6062 34.412 13.5567 35.4809 13.6826 35.8106C13.8085 36.1403 14.5639 35.0813 15.2113 33.8925C24.0056 31.6347 32.0265 38.3881 32.8807 47.9187C32.7189 46.4302 31.0688 45.606 30.318 45.8108C29.9448 46.8298 29.3154 48.1385 28.2948 48.9577C28.383 48.0369 28.3406 47.1065 28.1689 46.2004C27.8991 47.4692 27.3596 48.648 26.6312 49.672C26.0632 49.7149 25.4944 49.6015 24.9752 49.3419C24.4561 49.0823 24.0026 48.6844 23.6549 48.1835C23.6099 48.1435 23.5919 48.0586 23.5559 48.0036L23.4256 47.664C23.3896 47.5641 23.3626 47.4642 23.3491 47.3743C23.3356 47.2843 23.3356 47.1745 23.3356 47.0746V46.8747C23.3491 46.7748 23.3716 46.6749 23.3986 46.585L23.4885 46.2953C23.5335 46.1954 23.5784 46.0955 23.6369 46.0056C23.8482 45.3462 23.8482 44.8068 23.457 44.4921C23.3806 44.4421 23.3087 44.3922 23.2232 44.3522C23.1783 44.3372 23.1108 44.3123 23.0614 44.3023L22.9625 44.2623L22.7017 44.1924C22.6169 44.1656 22.5291 44.1521 22.4409 44.1524C22.3502 44.1355 22.2586 44.1255 22.1667 44.1224C22.1037 44.1224 22.0408 44.1374 21.9868 44.1374C21.8879 44.1374 21.807 44.1524 21.7171 44.1774L21.4563 44.2273L21.1955 44.3272L20.9482 44.4521L20.7144 44.592C17.8235 46.6899 19.5455 51.5851 21.5237 53.0137C20.7774 53.1636 20.0221 53.3434 19.8152 53.5232C20.3233 53.9078 20.8808 54.2125 21.4653 54.5222L23.475 55.1816C24.5011 55.426 25.5524 55.5134 26.5998 55.4413C32.0939 55.0118 36.599 50.3713 37.4173 44.2523L37.4937 44.612L37.6061 45.3812C37.6331 45.5211 37.6421 45.641 37.6511 45.7508L37.678 46.1654L37.705 46.615V46.8348C37.705 46.9047 37.7185 46.9846 37.7185 47.0546C37.7185 47.1245 37.705 47.2194 37.705 47.3043V47.5041C37.705 47.604 37.6915 47.684 37.6915 47.7789C37.6915 47.8288 37.6915 47.8888 37.678 47.9587L37.6645 48.2584C37.6511 48.2983 37.6511 48.3433 37.6511 48.3833L37.6151 48.698C37.6151 48.7379 37.6151 48.7829 37.6016 48.8228L37.5566 49.2224V49.2474L37.4802 49.632L37.4038 50.0466L37.2059 50.8958L37.0801 51.3354L36.8103 52.1346L36.6619 52.5342L36.4821 52.9188C36.4686 52.9588 36.4551 52.9887 36.4461 53.0187C35.6194 54.8584 34.4169 56.4578 32.9347 57.6891C32.8358 57.7591 32.7369 57.839 32.638 57.9239C32.611 57.9539 32.575 57.9639 32.548 57.9938L32.2783 58.1936L32.3142 58.2786H32.3277L32.8493 58.1936H32.8628L33.8294 57.9938C33.9193 57.9789 34.0093 57.9539 34.0992 57.9239L34.279 57.8839L34.5398 57.834L34.7646 57.7641C35.9936 57.431 37.1965 56.9884 38.3614 56.4404C36.3687 59.4572 33.7185 61.8619 30.6597 63.4285C32.0918 63.3231 33.5099 63.0502 34.8905 62.6143C39.8901 60.9759 44.0939 57.2396 46.6117 52.2095C46.1036 55.3914 44.9616 58.4234 43.2756 61.0708C44.4805 60.1867 45.5821 59.1727 46.5892 58.0138C49.3678 54.787 51.1931 50.696 51.8046 46.3003C52.2272 48.4782 52.3441 50.726 52.1643 52.9438C61.1204 39.0674 52.9106 24.6815 49.4667 20.8902C49.4217 20.9901 49.4037 21.15 49.3947 21.3198L49.2688 22.2439L49.0575 23.153L48.7608 24.0372L48.3876 24.8763L47.938 25.6606L47.43 26.4098C47.2501 26.6596 47.0433 26.8794 46.8455 27.0991L46.4858 27.4488L46.2025 27.7235C45.9818 27.9189 45.7506 28.099 45.5101 28.263L44.7773 28.7325L43.995 29.1172C43.7311 29.2281 43.4625 29.3248 43.1902 29.4069L42.3584 29.6067C42.0752 29.6566 41.7874 29.6916 41.5132 29.7166L40.9197 29.7465C40.6364 29.7465 40.3487 29.7166 40.0744 29.6966C39.7902 29.6733 39.5078 29.6282 39.2292 29.5617C38.9459 29.5118 38.6717 29.4219 38.3974 29.327H38.3839L39.2022 29.2171L40.034 29.0173L40.8432 28.7276C41.113 28.6177 41.3828 28.4778 41.6256 28.3429C41.8809 28.2051 42.13 28.0534 42.3719 27.8884L43.0643 27.3889C43.287 27.1972 43.4987 26.9903 43.6982 26.7695C43.9055 26.5584 44.1007 26.3332 44.2827 26.0951L44.8043 25.3459C44.8312 25.3059 44.8492 25.246 44.8807 25.206L45.2404 24.5467L45.6136 23.7075L45.9103 22.8233C46.0002 22.5336 46.0587 22.2239 46.1216 21.9242L46.2475 21.0001L46.2925 20.0611L46.27 19.4017L46.1711 18.4776L45.9912 17.5535L45.7215 16.6694C45.6225 16.3797 45.4967 16.0899 45.3753 15.8202L44.9526 15.006L44.503 14.2468L43.932 13.5474L43.6083 13.1978L41.8863 11.8491C41.7964 11.7992 41.7245 11.7492 41.639 11.7092C41.2344 11.4195 40.8432 11.2697 40.4611 11.1298L40.4386 11.0699Z" fill="white"/>
</g>
</g>
<defs>
<clipPath id="clip0_227_9222">
<rect width="72" height="72" fill="white" transform="translate(0.5)"/>
</clipPath>
<clipPath id="clip1_227_9222">
<rect width="101.143" height="55.7143" fill="white" transform="translate(-12.3594 7.71423)"/>
</clipPath>
</defs>
</svg>
