<svg width="120" height="72" viewBox="0 0 120 72" fill="none" xmlns="http://www.w3.org/2000/svg">
<g clip-path="url(#clip0_227_9103)">
<path d="M28.0664 18.8308H50.7189V20.6249H30.1429V34.1277H49.4919V35.9217H30.1429V50.7465H50.9549V52.5405H28.0664V18.8308ZM52.7482 18.8308H55.155L65.8206 33.6555L76.7221 18.8308L91.5499 0L67.1892 35.2136L79.7424 52.5405H77.2412L65.8206 36.7716L54.3528 52.5405H51.8987L64.5464 35.2136L52.7482 18.8308ZM80.6391 20.6249V18.8308H106.454V20.6249H94.5609V52.5405H92.4845V20.6249H80.6391Z" fill="white"/>
<path d="M0 18.4865H2.61739L38.7097 72L23.7945 52.2873L2.18909 21.0428L2.09391 52.2873H0V18.4865Z" fill="white"/>
<path d="M106.237 50.502C106.671 50.502 106.989 50.1676 106.989 49.7354C106.989 49.3033 106.671 48.9689 106.237 48.9689C105.807 48.9689 105.484 49.3033 105.484 49.7354C105.484 50.1676 105.807 50.502 106.237 50.502ZM108.304 48.4853C108.304 49.7612 109.22 50.5946 110.555 50.5946C111.977 50.5946 112.837 49.7354 112.837 48.2435V42.9909H111.691V48.2383C111.691 49.0666 111.276 49.5091 110.545 49.5091C109.89 49.5091 109.445 49.0975 109.429 48.4853H108.304ZM114.336 48.4184C114.418 49.7457 115.518 50.5946 117.156 50.5946C118.906 50.5946 120.001 49.7046 120.001 48.2846C120.001 47.1683 119.376 46.5509 117.862 46.1959L117.048 45.9953C116.086 45.7689 115.697 45.4654 115.697 44.9355C115.697 44.2667 116.301 43.8294 117.207 43.8294C118.066 43.8294 118.66 44.2564 118.767 44.9407H119.883C119.816 43.6905 118.721 42.8108 117.222 42.8108C115.61 42.8108 114.536 43.6905 114.536 45.0127C114.536 46.1033 115.145 46.7516 116.48 47.0654L117.432 47.2969C118.409 47.5284 118.839 47.8679 118.839 48.4338C118.839 49.0924 118.164 49.5708 117.243 49.5708C116.255 49.5708 115.569 49.1232 115.472 48.4184H114.336Z" fill="white"/>
</g>
<defs>
<clipPath id="clip0_227_9103">
<rect width="120" height="72" fill="white"/>
</clipPath>
</defs>
</svg>
