<svg width="73" height="72" viewBox="0 0 73 72" fill="none" xmlns="http://www.w3.org/2000/svg">
<path d="M36.0197 68.16C35.1726 68.1604 34.3405 67.9356 33.6068 67.5083L25.9287 62.9215C24.7828 62.2743 25.3412 62.0457 25.7201 61.9122C26.9388 61.5323 28.1057 61.0001 29.1937 60.3282C29.2848 60.2857 29.3851 60.2673 29.4851 60.2748C29.5852 60.2824 29.6817 60.3155 29.7655 60.3712L35.6654 63.9081C35.7752 63.9667 35.8976 63.9974 36.0219 63.9974C36.1462 63.9974 36.2686 63.9667 36.3785 63.9081L59.386 50.5073C59.4937 50.4422 59.5827 50.35 59.6444 50.2397C59.7062 50.1294 59.7384 50.0048 59.7381 49.8782V23.072C59.7381 22.9433 59.7054 22.8168 59.6429 22.7047C59.5805 22.5925 59.4904 22.4984 59.3815 22.4316L36.374 9.04208C36.2655 8.98043 36.1431 8.94803 36.0186 8.94803C35.8941 8.94803 35.7716 8.98043 35.6631 9.04208L12.6691 22.4361C12.5594 22.5016 12.4683 22.5945 12.4047 22.7059C12.341 22.8173 12.307 22.9434 12.3058 23.072V49.8669C12.3061 49.9932 12.3397 50.1172 12.4032 50.2262C12.4666 50.3351 12.5576 50.4251 12.6668 50.4869L18.9771 54.1618C22.3968 55.8861 24.4913 53.8541 24.4913 51.8129V25.3575C24.4913 25.1775 24.5621 25.0048 24.6883 24.8775C24.8145 24.7502 24.9856 24.6786 25.164 24.6786H28.0792C28.2576 24.6786 28.4287 24.7502 28.5549 24.8775C28.681 25.0048 28.7519 25.1775 28.7519 25.3575V51.8152C28.7519 56.4202 26.2673 59.0564 21.9394 59.0564C20.0723 59.0893 18.2344 58.5854 16.6405 57.6037L10.5926 54.103C9.85837 53.6715 9.24916 53.0533 8.82577 52.3099C8.40237 51.5666 8.17961 50.7242 8.1797 49.8669V23.072C8.17752 22.2133 8.39935 21.3691 8.82289 20.6244C9.24643 19.8796 9.85677 19.2604 10.5926 18.8291L33.6023 5.42373C34.3435 5.01452 35.1748 4.80005 36.0197 4.80005C36.8646 4.80005 37.6959 5.01452 38.4371 5.42373L61.4446 18.8291C62.1787 19.2597 62.788 19.8771 63.2118 20.6196C63.6356 21.3621 63.859 22.2038 63.8597 23.0607V49.8669C63.8584 50.7242 63.6348 51.5663 63.2112 52.3095C62.7875 53.0526 62.1784 53.6709 61.4446 54.103L38.4371 67.5083C37.7021 67.9363 36.8682 68.1611 36.0197 68.16Z" fill="white"/>
<path d="M32.1797 40.3314C32.1797 40.15 32.2516 39.976 32.3796 39.8477C32.5075 39.7194 32.6811 39.6473 32.8621 39.6473H35.8806C36.0419 39.6479 36.1977 39.7056 36.3206 39.8104C36.4434 39.9152 36.5253 40.0602 36.5516 40.2197C37.0065 43.3003 38.3713 44.8532 44.5425 44.8532C49.4581 44.8532 51.553 43.7382 51.553 41.1227C51.553 39.6154 50.9593 38.4958 43.3187 37.7456C36.9315 37.1117 32.9826 35.6933 32.9826 30.5764C32.9826 25.8562 36.9519 23.04 43.6053 23.04C51.0822 23.04 54.783 25.6418 55.2516 31.224C55.2588 31.3172 55.2468 31.4108 55.2165 31.4992C55.1861 31.5876 55.138 31.6688 55.0751 31.7378C55.0122 31.8068 54.9359 31.8622 54.8509 31.9005C54.7658 31.9388 54.6738 31.9592 54.5806 31.9605H51.5416C51.3892 31.9584 51.2418 31.9051 51.1231 31.8092C51.0044 31.7133 50.9211 31.5804 50.8865 31.4315C50.1609 28.1912 48.3844 27.1559 43.6076 27.1559C38.2394 27.1559 37.6161 29.0303 37.6161 30.435C37.6161 32.1361 38.3531 32.6332 45.6002 33.5932C52.7722 34.5441 56.1797 35.8894 56.1797 40.9425C56.1797 46.0413 51.9397 48.96 44.5448 48.96C34.3201 48.9737 32.1797 44.274 32.1797 40.3314Z" fill="white"/>
</svg>
