<svg width="72" height="72" viewBox="0 0 72 72" fill="none" xmlns="http://www.w3.org/2000/svg">
<path d="M19.2672 34.326C24.6402 36.2145 30.3085 37.1237 36.0027 37.0102C41.697 37.123 47.3653 36.213 52.7382 34.3237C56.9322 32.688 58.4194 30.87 58.4194 29.8237V21.825C56.9531 22.8069 55.3801 23.6191 53.7304 24.246C48.0457 26.2815 42.0401 27.274 36.0027 27.1755C29.9658 27.2721 23.9608 26.2813 18.2749 24.2505C16.6245 23.6236 15.0512 22.8098 13.5859 21.825V29.8125C13.5859 30.879 15.0777 32.688 19.2672 34.326Z" fill="white"/>
<path d="M19.2672 49.4121C21.1653 50.136 23.1226 50.6939 25.1172 51.0794C28.7038 51.7732 32.3496 52.1146 36.0027 52.0986C39.6557 52.1153 43.3015 51.7747 46.8882 51.0816C48.8827 50.6961 50.8401 50.1382 52.7382 49.4144C56.9322 47.7786 58.4194 45.9606 58.4194 44.9144V37.2869C57.2074 38.0162 55.9335 38.6374 54.6124 39.1431C48.6404 41.2576 42.3369 42.2811 36.0027 42.1649C29.6678 42.2775 23.3642 41.2502 17.3929 39.1319C16.0725 38.6248 14.7987 38.0037 13.5859 37.2756V44.9099C13.5859 45.9584 15.0777 47.7696 19.2672 49.4121Z" fill="white"/>
<path d="M36.0027 67.5C48.3777 67.5 58.4194 63.576 58.4194 58.7385V52.3552C57.3168 53.0199 56.1617 53.5933 54.9657 54.0697L54.6124 54.2115C48.6416 56.3322 42.338 57.3618 36.0027 57.2512C29.6671 57.365 23.363 56.3353 17.3929 54.2115C17.2714 54.1665 17.1544 54.1147 17.0397 54.0697C15.8436 53.5933 14.6885 53.0199 13.5859 52.3552V58.7385C13.5859 63.576 23.6277 67.5 36.0027 67.5Z" fill="white"/>
<path d="M36.0027 22.023C48.3831 22.023 58.4194 18.1003 58.4194 13.2615C58.4194 8.42266 48.3831 4.5 36.0027 4.5C23.6223 4.5 13.5859 8.42266 13.5859 13.2615C13.5859 18.1003 23.6223 22.023 36.0027 22.023Z" fill="white"/>
</svg>
