<svg width="73" height="72" viewBox="0 0 73 72" fill="none" xmlns="http://www.w3.org/2000/svg">
<g clip-path="url(#clip0_227_9313)">
<path d="M73.1112 -0.0288086H0.660156V72.0291H73.1112V-0.0288086Z" fill="white"/>
<path d="M67.0415 6.01001H6.73438V65.9904H67.0415V6.01001Z" fill="#242424"/>
<path fill-rule="evenodd" clip-rule="evenodd" d="M54.3751 28.3006C49.01 25.5928 39.7734 26.9045 39.7734 33.9693C39.7734 39.2304 43.411 41.3011 47.8584 43.0392C54.1784 45.5082 48.0363 50.1743 40.3212 45.3489C40.3212 45.3489 40.045 45.213 39.9092 45.3489C39.7734 45.4847 39.7734 45.6206 39.7734 45.7611C39.7734 45.897 39.7734 50.8302 39.7734 50.8302C42.47 52.2122 44.483 52.9149 47.5962 52.8821C57.6381 52.7791 59.0847 43.1563 53.7431 39.4553C52.774 38.7807 50.1804 37.4361 49.3612 37.1222C45.115 35.5013 45.4755 33.1963 46.8238 32.0345C48.3125 30.7461 52.4416 32.695 54.1784 33.7819C55.2318 34.4331 55.405 33.6226 55.4003 32.9105L55.3863 29.5421C55.3863 28.741 55.1101 28.6754 54.3751 28.3006Z" fill="white"/>
<path fill-rule="evenodd" clip-rule="evenodd" d="M23.3638 36.7147V24.3748C23.3638 24.3139 23.5792 24.1031 23.6353 24.1031C28.8599 23.836 31.8327 24.8573 32.0995 30.4417C32.4038 36.8506 27.0341 36.9865 23.3638 36.9865V36.7147ZM17.0625 19.5775V52.751H23.3638V42.0602C31.107 42.613 38.0918 39.8349 38.0918 30.8774C38.0918 27.2654 36.9683 23.6299 34.3045 21.4327C30.5827 18.3594 21.8845 19.0434 17.0625 19.5775Z" fill="white"/>
</g>
<defs>
<clipPath id="clip0_227_9313">
<rect width="72" height="72" fill="white" transform="translate(0.5)"/>
</clipPath>
</defs>
</svg>
