<svg width="119" height="72" viewBox="0 0 119 72" fill="none" xmlns="http://www.w3.org/2000/svg">
<path d="M32.7603 25.5964C32.7603 27.0468 32.9186 28.2227 33.1957 29.0851C33.5124 29.9474 33.9082 30.8882 34.4624 31.9073C34.6603 32.2209 34.7395 32.5345 34.7395 32.8089C34.7395 33.2009 34.502 33.5928 33.9874 33.9848L31.4936 35.6312C31.1373 35.8663 30.781 35.9839 30.4644 35.9839C30.0685 35.9839 29.6727 35.7879 29.2768 35.4352C28.7226 34.8472 28.2476 34.22 27.8518 33.5928C27.4559 32.9265 27.0601 32.1817 26.6247 31.2802C23.5371 34.8864 19.6578 36.6895 14.9868 36.6895C11.6617 36.6895 9.00953 35.7487 7.06988 33.8672C5.13024 31.9857 4.14062 29.477 4.14062 26.3412C4.14062 23.0093 5.32816 20.3047 7.74282 18.2664C10.1575 16.2281 13.3638 15.2089 17.441 15.2089C18.7869 15.2089 20.1724 15.3265 21.637 15.5225C23.1016 15.7185 24.6058 16.0321 26.1892 16.3848V13.5234C26.1892 10.5443 25.5559 8.46681 24.3288 7.25167C23.062 6.03652 20.9245 5.44855 17.8765 5.44855C16.491 5.44855 15.066 5.60534 13.6013 5.95812C12.1367 6.31091 10.7117 6.74209 9.3262 7.29086C8.69285 7.56525 8.21783 7.72204 7.94074 7.80044C7.66365 7.87884 7.46573 7.91803 7.30739 7.91803C6.75321 7.91803 6.47611 7.52605 6.47611 6.70289V4.78218C6.47611 4.15501 6.55528 3.68463 6.75321 3.41024C6.95113 3.13586 7.30739 2.86147 7.86157 2.58708C9.24703 1.88151 10.9096 1.29354 12.8492 0.823162C14.7889 0.313585 16.8473 0.0783964 19.0244 0.0783964C23.735 0.0783964 27.1788 1.13675 29.3956 3.25345C31.5727 5.37015 32.6811 8.5844 32.6811 12.8962V25.5964H32.7603ZM16.6889 31.5545C17.9952 31.5545 19.3411 31.3194 20.7661 30.849C22.1912 30.3786 23.4579 29.5162 24.5267 28.3403C25.16 27.5955 25.635 26.7724 25.8725 25.8316C26.1101 24.8909 26.2684 23.7541 26.2684 22.4214V20.775C25.1204 20.5007 23.8933 20.2655 22.6266 20.1087C21.3599 19.9519 20.1328 19.8735 18.9057 19.8735C16.2535 19.8735 14.3139 20.3831 13.0076 21.4414C11.7013 22.4998 11.0679 23.9893 11.0679 25.9492C11.0679 27.7915 11.5429 29.1635 12.5326 30.1042C13.4826 31.0842 14.868 31.5545 16.6889 31.5545ZM48.4753 35.7879C47.7628 35.7879 47.2878 35.6704 46.9711 35.396C46.6544 35.1608 46.3773 34.612 46.1398 33.8672L36.8375 3.56703C36.6 2.78307 36.4812 2.27349 36.4812 1.99911C36.4812 1.37194 36.7979 1.01915 37.4312 1.01915H41.3105C42.0626 1.01915 42.5772 1.13675 42.8543 1.41113C43.171 1.64632 43.4085 2.1951 43.646 2.93986L50.2962 28.8891L56.4714 2.93986C56.6693 2.1559 56.9068 1.64632 57.2235 1.41113C57.5402 1.17595 58.0944 1.01915 58.8069 1.01915H61.9737C62.7258 1.01915 63.2404 1.13675 63.557 1.41113C63.8737 1.64632 64.1508 2.1951 64.3092 2.93986L70.5635 29.2027L77.4116 2.93986C77.6491 2.1559 77.9262 1.64632 78.2033 1.41113C78.52 1.17595 79.0346 1.01915 79.7471 1.01915H83.4285C84.0618 1.01915 84.4181 1.33274 84.4181 1.99911C84.4181 2.1951 84.3785 2.39109 84.3389 2.62628C84.2994 2.86147 84.2202 3.17505 84.0618 3.60623L74.522 33.9064C74.2845 34.6904 74.0074 35.2 73.6907 35.4352C73.374 35.6704 72.8594 35.8271 72.1865 35.8271H68.7822C68.0301 35.8271 67.5155 35.7096 67.1988 35.4352C66.8821 35.1608 66.6051 34.6512 66.4467 33.8672L60.3111 8.5844L54.2151 33.828C54.0172 34.612 53.7797 35.1216 53.463 35.396C53.1463 35.6704 52.5921 35.7879 51.8796 35.7879H48.4753ZM99.3415 36.8463C97.2831 36.8463 95.2247 36.6111 93.2455 36.1407C91.2662 35.6704 89.7224 35.1608 88.6932 34.5728C88.0599 34.22 87.6245 33.828 87.4661 33.4753C87.3078 33.1225 87.2286 32.7305 87.2286 32.3777V30.3786C87.2286 29.5554 87.5453 29.1635 88.1391 29.1635C88.3766 29.1635 88.6141 29.2027 88.8516 29.281C89.0891 29.3594 89.4454 29.5162 89.8412 29.673C91.1871 30.261 92.6517 30.7314 94.1955 31.045C95.7789 31.3586 97.3227 31.5153 98.9061 31.5153C101.4 31.5153 103.34 31.0842 104.685 30.2218C106.031 29.3594 106.744 28.1051 106.744 26.498C106.744 25.4004 106.388 24.4989 105.675 23.7541C104.962 23.0093 103.617 22.343 101.677 21.7158L95.9372 19.9519C93.0475 19.0503 90.91 17.7176 89.6037 15.9537C88.2974 14.2289 87.6245 12.3082 87.6245 10.2699C87.6245 8.6236 87.9807 7.17327 88.6932 5.91893C89.4058 4.66458 90.3558 3.56704 91.5433 2.70468C92.7309 1.80312 94.0767 1.13675 95.6601 0.666369C97.2435 0.195991 98.9061 0 100.648 0C101.519 0 102.429 0.0391982 103.3 0.156793C104.21 0.274387 105.042 0.43118 105.873 0.587973C106.665 0.783964 107.417 0.979955 108.129 1.21514C108.842 1.45033 109.396 1.68552 109.792 1.92071C110.346 2.2343 110.742 2.54788 110.979 2.90067C111.217 3.21425 111.336 3.64543 111.336 4.19421V6.03652C111.336 6.85968 111.019 7.29086 110.425 7.29086C110.108 7.29086 109.594 7.13407 108.921 6.82049C106.665 5.80133 104.131 5.29176 101.321 5.29176C99.0644 5.29176 97.2831 5.64454 96.056 6.3893C94.8288 7.13407 94.1955 8.27082 94.1955 9.87794C94.1955 10.9755 94.5913 11.9163 95.383 12.661C96.1747 13.4058 97.6394 14.1505 99.7373 14.8169L105.358 16.5808C108.208 17.4824 110.267 18.7367 111.494 20.3439C112.721 21.951 113.315 23.7933 113.315 25.8316C113.315 27.5171 112.959 29.0459 112.286 30.3786C111.573 31.7113 110.623 32.8873 109.396 33.828C108.169 34.808 106.704 35.5136 105.002 36.0231C103.221 36.5719 101.36 36.8463 99.3415 36.8463Z" fill="white"/>
<path fill-rule="evenodd" clip-rule="evenodd" d="M107.601 57.2035C94.6668 66.8689 75.8742 72 59.7157 72C37.0702 72 16.6657 63.5278 1.25415 49.4473C0.035385 48.3335 1.13621 46.8221 2.59086 47.6971C19.2605 57.4819 39.8222 63.4085 61.0917 63.4085C75.4417 63.4085 91.207 60.3855 105.714 54.1806C107.877 53.1862 109.724 55.6125 107.601 57.2035Z" fill="#FCFCFC"/>
<path fill-rule="evenodd" clip-rule="evenodd" d="M112.567 50.5705C110.939 48.4464 101.795 49.5478 97.649 50.0591C96.4091 50.2165 96.2154 49.1151 97.339 48.2891C104.623 43.0969 116.596 44.5916 117.991 46.3223C119.386 48.0924 117.604 60.2468 110.784 66.0684C109.738 66.9731 108.731 66.5011 109.196 65.321C110.745 61.4269 114.194 52.6552 112.567 50.5705Z" fill="#FCFCFC"/>
</svg>
