<svg width="72" height="72" viewBox="0 0 72 72" fill="none" xmlns="http://www.w3.org/2000/svg">
<path d="M53.0446 26.4376C55.089 24.9751 56.6124 22.9092 57.3959 20.5364C58.1795 18.1636 58.1828 15.6062 57.4055 13.2315C56.6281 10.8567 55.1101 8.78684 53.0695 7.31916C51.0289 5.85148 48.5706 5.06152 46.0479 5.06275H26.7194C24.1967 5.06152 21.7384 5.85148 19.6978 7.31916C17.6572 8.78684 16.1392 10.8567 15.3618 13.2315C14.5845 15.6062 14.5878 18.1636 15.3714 20.5364C16.1549 22.9092 17.6783 24.9751 19.7227 26.4376C18.193 27.5308 16.9473 28.9676 16.0883 30.6301C15.2292 32.2925 14.7812 34.1329 14.7813 36.0001C14.7813 37.8672 15.2292 39.7076 16.0883 41.37C16.9474 43.0324 18.1931 44.4693 19.7229 45.5624C18.0681 46.748 16.7486 48.334 15.8907 50.1687C15.0327 52.0034 14.6652 54.0252 14.8231 56.0407C14.9811 58.0562 15.6592 59.9978 16.7927 61.6797C17.9262 63.3615 19.477 64.7274 21.2968 65.6463C23.1165 66.5653 25.1441 67.0067 27.1856 66.9283C29.2271 66.8498 31.2141 66.2542 32.9563 65.1983C34.6985 64.1424 36.1376 62.6617 37.1359 60.898C38.1341 59.1342 38.6581 57.1464 38.6576 55.1248V45.2666C39.9037 46.2411 41.3339 46.9596 42.8643 47.3799C44.3948 47.8003 45.9947 47.914 47.5701 47.7145C49.1456 47.5149 50.6649 47.0062 52.039 46.218C53.4131 45.4297 54.6143 44.378 55.5722 43.1244C56.5301 41.8707 57.2254 40.4405 57.6172 38.9175C58.0091 37.3944 58.0897 35.8093 57.8542 34.2551C57.6188 32.7009 57.0721 31.2088 56.2462 29.8664C55.4203 28.524 54.3318 27.3583 53.0446 26.4376ZM53.4382 16.8752C53.4359 18.813 52.6574 20.6708 51.2731 22.0415C49.8888 23.4122 48.0118 24.184 46.0534 24.1876L46.0479 24.1875L46.0369 24.1877L38.6576 24.1875V9.56275H46.0479C48.0072 9.56494 49.8857 10.3361 51.2711 11.707C52.6566 13.0778 53.4359 14.9365 53.4382 16.8752ZM19.3291 16.8752C19.3313 14.9365 20.1107 13.0778 21.4961 11.707C22.8816 10.3361 24.7601 9.56494 26.7194 9.56275H34.1097V24.1875H26.7194L26.714 24.1876C24.7556 24.184 22.8786 23.4123 21.4943 22.0416C20.11 20.6709 19.3314 18.813 19.3291 16.8752ZM19.3291 36C19.3314 34.0622 20.11 32.2043 21.4943 30.8336C22.8786 29.4629 24.7556 28.6912 26.714 28.6876L26.7194 28.6877L34.1097 28.6875V43.3122L26.7194 43.3125C24.7601 43.3103 22.8816 42.5391 21.4961 41.1683C20.1107 39.7974 19.3313 37.9387 19.3291 36ZM26.7194 62.4372C25.7484 62.438 24.7867 62.2495 23.8893 61.8824C22.992 61.5153 22.1765 60.9768 21.4896 60.2977C20.8027 59.6186 20.2577 58.8122 19.8859 57.9246C19.5141 57.037 19.3228 56.0856 19.3228 55.1248C19.3228 54.164 19.5141 53.2126 19.8859 52.325C20.2577 51.4374 20.8027 50.631 21.4896 49.9519C22.1765 49.2728 22.992 48.7343 23.8893 48.3672C24.7867 48.0001 25.7484 47.8116 26.7194 47.8125L34.1097 47.8123V55.1248C34.1075 57.0635 33.3281 58.9222 31.9426 60.293C30.5572 61.6639 28.6787 62.435 26.7194 62.4372ZM46.0479 43.3125C44.0892 43.312 42.2107 42.5421 40.8254 41.172C39.44 39.8019 38.661 37.9436 38.6596 36.0055C38.6581 34.0674 39.4343 32.208 40.8176 30.8359C42.2009 29.4637 44.0782 28.6911 46.0369 28.6877H46.0479L46.0533 28.6876C48.012 28.6903 49.8895 29.4622 51.2733 30.8339C52.6571 32.2055 53.434 34.0646 53.4333 36.0027C53.4326 37.9408 52.6543 39.7993 51.2695 41.17C49.8847 42.5406 48.0066 43.3112 46.0479 43.3125Z" fill="white"/>
</svg>
