<svg width="72" height="72" viewBox="0 0 72 72" fill="none" xmlns="http://www.w3.org/2000/svg">
<path d="M36.0017 42.24C39.448 42.24 42.2417 39.4463 42.2417 36C42.2417 32.5538 39.448 29.76 36.0017 29.76C32.5555 29.76 29.7617 32.5538 29.7617 36C29.7617 39.4463 32.5555 42.24 36.0017 42.24Z" fill="white"/>
<path d="M60.2379 25.8256C59.0064 25.3722 57.719 24.9188 56.3756 24.5221C56.7115 23.162 56.9914 21.8018 57.2153 20.4984C58.3907 13.0176 57.1033 7.74703 53.5209 5.70681C52.4574 5.08341 51.282 4.80005 49.9386 4.80005C46.0204 4.80005 41.0386 7.74703 36.0009 12.6775C30.9632 7.74703 25.9815 4.80005 22.0633 4.80005C20.7199 4.80005 19.5445 5.08341 18.4809 5.70681C14.8986 7.8037 13.6112 13.0743 14.7866 20.4984C15.0105 21.8018 15.2904 23.162 15.6262 24.5221C14.2829 24.9188 12.9954 25.3155 11.764 25.8256C4.7672 28.5459 0.960938 32.2863 0.960938 36.48C0.960938 40.6738 4.82317 44.4142 11.764 47.1345C12.9954 47.5879 14.2829 48.0413 15.6262 48.438C15.2904 49.7981 15.0105 51.1583 14.7866 52.4617C13.6112 59.9425 14.8986 65.2131 18.4809 67.2533C19.5445 67.8767 20.7199 68.16 22.0633 68.16C26.0375 68.16 31.0192 65.2131 36.0009 60.2826C41.0386 65.2131 46.0204 68.16 49.9386 68.16C51.282 68.16 52.4574 67.8767 53.5209 67.2533C57.1033 65.1564 58.3907 59.8858 57.2153 52.4617C56.9914 51.1583 56.7115 49.7981 56.3756 48.438C57.719 48.0413 59.0064 47.6446 60.2379 47.1345C67.2347 44.4142 71.0409 40.6738 71.0409 36.48C71.0409 32.2863 67.2347 28.5459 60.2379 25.8256ZM51.9537 8.54044C54.2486 9.90059 55.0322 14.0944 54.0807 20.045C53.9128 21.2351 53.6329 22.4819 53.297 23.7854C50.3864 23.1053 47.3078 22.6519 44.0613 22.3686C42.1581 19.6483 40.199 17.2114 38.2399 15.0011C42.382 10.864 46.5801 8.03039 49.9945 8.03039C50.7222 8.03039 51.3939 8.20041 51.9537 8.54044ZM45.6845 42.1473C44.677 43.9608 43.5015 45.7744 42.2701 47.5879C40.199 47.7579 38.128 47.8146 36.0009 47.8146C33.8179 47.8146 31.7469 47.7579 29.7318 47.5879C28.5004 45.7744 27.3809 43.9608 26.3733 42.1473C25.3098 40.2771 24.3023 38.3502 23.4067 36.48C24.3023 34.6099 25.3098 32.683 26.3733 30.8128C27.3809 28.9993 28.5563 27.1857 29.7878 25.3722C31.8588 25.2022 33.9299 25.1455 36.0569 25.1455C38.2399 25.1455 40.311 25.2022 42.326 25.3722C43.5575 27.1857 44.677 28.9993 45.6845 30.8128C46.748 32.683 47.7556 34.6099 48.6512 36.48C47.6996 38.3502 46.748 40.2204 45.6845 42.1473ZM50.3304 40.2771C51.17 42.2607 51.8417 44.1875 52.4574 46.1144C50.5543 46.5678 48.5392 46.9078 46.4122 47.1912C47.0839 46.1144 47.8115 44.9809 48.4273 43.7908C49.099 42.6007 49.7147 41.4106 50.3304 40.2771ZM36.0009 55.6354C34.6576 54.1619 33.3701 52.5751 32.1387 50.9316C33.4261 50.9882 34.7135 51.0449 36.0009 51.0449C37.2883 51.0449 38.5758 50.9882 39.8632 50.9316C38.6317 52.5751 37.3443 54.1619 36.0009 55.6354ZM25.5897 47.1345C23.4627 46.8511 21.4476 46.5111 19.5445 46.0577C20.1602 44.1875 20.8319 42.204 21.6715 40.2204C22.2872 41.3539 22.9029 42.544 23.5746 43.6775C24.2463 44.9243 24.918 46.0011 25.5897 47.1345ZM21.6715 32.683C20.8319 30.6994 20.1602 28.7726 19.5445 26.8457C21.4476 26.3923 23.4627 26.0523 25.5897 25.7689C24.918 26.8457 24.1903 27.9792 23.5746 29.1693C22.9029 30.3594 22.2872 31.5495 21.6715 32.683ZM36.0009 17.3247C37.3443 18.7982 38.6317 20.385 39.8632 22.0285C38.5758 21.9719 37.2883 21.9152 36.0009 21.9152C34.7135 21.9152 33.4261 21.9719 32.1387 22.0285C33.3701 20.385 34.6576 18.7982 36.0009 17.3247ZM48.4273 29.226L46.4122 25.8256C48.5392 26.109 50.5543 26.449 52.4574 26.9024C51.8417 28.7726 51.17 30.7561 50.3304 32.7397C49.7147 31.5495 49.099 30.3594 48.4273 29.226ZM17.9212 20.045C16.9696 14.0944 17.7533 9.90059 20.0482 8.54044C20.608 8.20041 21.2797 8.03039 22.0073 8.03039C25.3658 8.03039 29.5639 10.8073 33.762 15.0011C31.8029 17.1547 29.8437 19.6483 27.9406 22.3686C24.6941 22.6519 21.6155 23.162 18.7048 23.7854C18.369 22.4819 18.1451 21.2351 17.9212 20.045ZM4.09551 36.48C4.09551 33.8164 7.28605 30.9828 12.8835 28.8859C14.003 28.4325 15.2344 28.0358 16.4659 27.6958C17.3615 30.5294 18.4809 33.5331 19.8243 36.5367C18.4809 39.5404 17.3055 42.4873 16.4659 45.321C8.74139 43.0541 4.09551 39.6537 4.09551 36.48ZM20.0482 64.4197C17.7533 63.0595 16.9696 58.8657 17.9212 52.9151C18.0891 51.725 18.369 50.4782 18.7048 49.1747C21.6155 49.8548 24.6941 50.3082 27.9406 50.5915C29.8437 53.3118 31.8029 55.7487 33.762 57.959C29.6199 62.0961 25.4218 64.9297 22.0073 64.9297C21.2797 64.9297 20.608 64.7597 20.0482 64.4197ZM54.0807 52.9151C55.0322 58.8657 54.2486 63.0595 51.9537 64.4197C51.3939 64.7597 50.7222 64.9297 49.9945 64.9297C46.6361 64.9297 42.438 62.1527 38.2399 57.959C40.199 55.8054 42.1581 53.3118 44.0613 50.5915C47.3078 50.3082 50.3864 49.7981 53.297 49.1747C53.6329 50.4782 53.8568 51.725 54.0807 52.9151ZM59.1184 44.0742C57.9989 44.5276 56.7675 44.9243 55.536 45.2643C54.6404 42.4307 53.5209 39.427 52.1776 36.4234C53.5209 33.4197 54.6964 30.4727 55.536 27.6391C63.2605 29.906 67.9064 33.3064 67.9064 36.48C67.9064 39.1437 64.6599 41.9773 59.1184 44.0742Z" fill="white"/>
</svg>
