<svg width="192" height="191" viewBox="0 0 192 191" fill="none" xmlns="http://www.w3.org/2000/svg"><path d="M6.83447 42.9864L4.26236 36.8133C1.77028 37.8517 0.146973 40.2866 0.146973 42.9864H6.83447ZM96.0011 184.167L93.429 190.34C95.0752 191.026 96.9271 191.026 98.5733 190.34L96.0011 184.167ZM185.168 42.9864H191.855C191.855 40.2866 190.232 37.8517 187.74 36.8133L185.168 42.9864ZM51.4178 61.5628L48.8457 67.7358L48.8457 67.7358L51.4178 61.5628ZM89.1422 8.6915L86.5701 2.51842L89.1422 8.6915ZM102.86 8.6915L105.432 2.51842L105.432 2.51842L102.86 8.6915ZM179.681 149.3L182.253 155.474L179.681 149.3ZM12.3217 149.3L9.74954 155.474L9.74954 155.474L12.3217 149.3ZM13.522 141.07V42.9864H0.146973V141.07H13.522ZM89.3136 80.1391V184.167H102.689V80.1391H89.3136ZM98.5733 177.994L14.8938 143.127L9.74954 155.474L93.429 190.34L98.5733 177.994ZM98.5733 190.34L182.253 155.474L177.109 143.127L93.429 177.994L98.5733 190.34ZM191.855 141.07V42.9864H178.48V141.07H191.855ZM182.596 36.8133L93.429 73.9661L98.5733 86.3122L187.74 49.1594L182.596 36.8133ZM86.5701 2.51842L4.26236 36.8133L9.40659 49.1594L91.7143 14.8646L86.5701 2.51842ZM4.26236 49.1594L48.8457 67.7358L53.9899 55.3897L9.40659 36.8133L4.26236 49.1594ZM48.8457 67.7358L93.429 86.3122L98.5733 73.9661L53.9899 55.3897L48.8457 67.7358ZM187.74 36.8133L143.157 18.2369L138.012 30.5831L182.596 49.1594L187.74 36.8133ZM143.157 18.2369L105.432 2.51842L100.288 14.8646L138.012 30.5831L143.157 18.2369ZM53.9899 67.7358L143.157 30.5831L138.012 18.2369L48.8457 55.3897L53.9899 67.7358ZM91.7143 14.8646C94.4579 13.7214 97.5444 13.7214 100.288 14.8646L105.432 2.51842C99.3963 0.00346462 92.6059 0.0034612 86.5701 2.51842L91.7143 14.8646ZM182.253 155.474C188.068 153.051 191.855 147.369 191.855 141.07H178.48C178.48 141.97 177.939 142.781 177.109 143.127L182.253 155.474ZM0.146973 141.07C0.146973 147.369 3.93469 153.051 9.74954 155.474L14.8938 143.127C14.0631 142.781 13.522 141.97 13.522 141.07H0.146973Z" fill="#2c2eac"></path></svg>