<svg width="214" height="214" viewBox="0 0 214 214" fill="none" xmlns="http://www.w3.org/2000/svg"><circle r="26.75" transform="matrix(-1 0 0 1 107 107)" stroke="#161616" stroke-width="13.375"></circle><path d="M147.128 44.0262L150.472 38.2346L147.128 44.0262ZM147.128 169.971L150.472 175.762L147.128 169.971ZM66.8778 169.971L70.2215 164.179L66.8778 169.971ZM66.8778 44.0258L70.2215 49.8174L70.2215 49.8174L66.8778 44.0258ZM79.5656 26.8845L86.0809 28.3921L79.5656 26.8845ZM22.7955 77.6008L16.4817 75.3966L22.7955 77.6008ZM47.3661 167.1L45.8307 160.591L47.3661 167.1ZM39.2617 164.985L44.3401 160.634L39.2617 164.985ZM85.0611 193.447L83.4207 199.931L85.0611 193.447ZM79.5663 187.115L73.0508 188.622L79.5663 187.115ZM134.439 187.115L127.924 185.608L134.439 187.115ZM128.945 193.447L130.585 199.93L128.945 193.447ZM174.742 164.985L179.821 169.336L174.742 164.985ZM166.638 167.1L168.173 160.591L166.638 167.1ZM191.208 77.6002L197.522 75.3959L191.208 77.6002ZM22.7954 136.399L16.4816 138.603L22.7954 136.399ZM166.636 46.8974L165.102 40.3883L166.636 46.8974ZM174.74 49.0124L169.661 53.3638L174.74 49.0124ZM188.086 127.656L192.338 122.494L188.086 127.656ZM191.208 136.4L197.522 138.604L191.208 136.4ZM134.44 26.8849L127.925 28.3926L134.44 26.8849ZM127.925 28.3926C129.938 37.094 135.427 44.9929 143.784 49.8177L150.472 38.2346C145.457 35.3395 142.168 30.6183 140.955 25.3773L127.925 28.3926ZM143.784 49.8177C151.461 54.2498 160.179 55.2906 168.171 53.4064L165.102 40.3883C160.294 41.5218 155.082 40.8964 150.472 38.2346L143.784 49.8177ZM197.522 75.3959C193.549 64.0157 187.494 53.6191 179.818 44.6611L169.661 53.3638C176.273 61.0795 181.48 70.0249 184.894 79.8044L197.522 75.3959ZM185.022 107C185.022 100.764 187.859 95.1961 192.338 91.5057L183.833 81.183C176.403 87.3051 171.647 96.5999 171.647 107H185.022ZM192.338 122.494C187.859 118.804 185.022 113.236 185.022 107H171.647C171.647 117.4 176.403 126.695 183.833 132.817L192.338 122.494ZM179.821 169.336C187.495 160.379 193.549 149.983 197.522 138.604L184.894 134.196C181.481 143.974 176.274 152.919 169.664 160.634L179.821 169.336ZM150.472 175.762C155.082 173.1 160.295 172.475 165.103 173.609L168.173 160.591C160.181 158.706 151.461 159.747 143.784 164.179L150.472 175.762ZM140.955 188.622C142.167 183.38 145.456 178.658 150.472 175.762L143.784 164.179C135.426 169.005 129.937 176.905 127.924 185.608L140.955 188.622ZM107.002 202.854C115.131 202.854 123.034 201.841 130.585 199.93L127.304 186.964C120.816 188.605 114.016 189.479 107.002 189.479V202.854ZM83.4207 199.931C90.9716 201.841 98.8731 202.854 107.002 202.854V189.479C99.9885 189.479 93.1887 188.606 86.7015 186.964L83.4207 199.931ZM63.534 175.762C68.5493 178.658 71.8385 183.38 73.0508 188.622L86.0818 185.608C84.0691 176.905 78.5796 169.005 70.2215 164.179L63.534 175.762ZM48.9015 173.609C53.7096 172.475 58.9229 173.1 63.534 175.762L70.2215 164.179C62.5437 159.746 53.8234 158.706 45.8307 160.591L48.9015 173.609ZM16.4816 138.603C20.4541 149.983 26.5084 160.379 34.1833 169.336L44.3401 160.634C37.7296 152.919 32.523 143.974 29.1092 134.195L16.4816 138.603ZM28.981 107C28.981 113.236 26.1438 118.804 21.6649 122.494L30.1699 132.817C37.6003 126.694 42.356 117.4 42.356 107H28.981ZM21.6649 91.5061C26.1439 95.1964 28.981 100.764 28.981 107H42.356C42.356 96.6003 37.6003 87.3056 30.17 81.1836L21.6649 91.5061ZM34.1866 44.6603C26.5102 53.6187 20.4548 64.0157 16.4817 75.3966L29.1093 79.805C32.5236 70.0249 37.7312 61.0791 44.3429 53.3631L34.1866 44.6603ZM63.534 38.2343C58.9234 40.8962 53.7107 41.5215 48.903 40.3878L45.8333 53.4057C53.8253 55.2903 62.5445 54.2497 70.2215 49.8174L63.534 38.2343ZM73.0502 25.3769C71.8375 30.6179 68.5485 35.3391 63.534 38.2343L70.2215 49.8174C78.5783 44.9926 84.0675 37.0936 86.0809 28.3921L73.0502 25.3769ZM107.002 11.1461C98.8728 11.1461 90.9709 12.1595 83.4197 14.0702L86.7006 27.0366C93.1881 25.395 99.9881 24.5211 107.002 24.5211V11.1461ZM130.586 14.0708C123.034 12.1597 115.132 11.1461 107.002 11.1461V24.5211C114.016 24.5211 120.817 25.3952 127.305 27.0371L130.586 14.0708ZM86.0809 28.3921C86.2201 27.7905 86.456 27.3662 86.639 27.1436C86.7961 26.9524 86.8241 27.0053 86.7006 27.0366L83.4197 14.0702C77.2565 15.6297 74.074 20.9523 73.0502 25.3769L86.0809 28.3921ZM30.17 81.1836C29.6272 80.7363 29.3116 80.2523 29.185 79.9287C29.0786 79.6565 29.1569 79.6686 29.1093 79.805L16.4817 75.3966C14.1098 82.1909 17.7847 88.309 21.6649 91.5061L30.17 81.1836ZM45.8307 160.591C45.2312 160.733 44.7473 160.71 44.4667 160.644C44.2255 160.588 44.2586 160.539 44.3401 160.634L34.1833 169.336C38.3123 174.156 44.4826 174.651 48.9015 173.609L45.8307 160.591ZM86.7015 186.964C86.825 186.995 86.797 187.048 86.6398 186.857C86.4568 186.634 86.221 186.21 86.0818 185.608L73.0508 188.622C74.0742 193.047 77.2566 198.371 83.4207 199.931L86.7015 186.964ZM127.924 185.608C127.785 186.21 127.549 186.634 127.366 186.857C127.209 187.048 127.181 186.995 127.304 186.964L130.585 199.93C136.749 198.37 139.931 193.047 140.955 188.622L127.924 185.608ZM169.664 160.634C169.745 160.539 169.779 160.588 169.537 160.644C169.257 160.709 168.773 160.732 168.173 160.591L165.103 173.609C169.522 174.651 175.692 174.155 179.821 169.336L169.664 160.634ZM184.894 79.8044C184.847 79.6681 184.925 79.6559 184.818 79.9281C184.692 80.2518 184.376 80.7357 183.833 81.183L192.338 91.5057C196.219 88.3087 199.894 82.1905 197.522 75.3959L184.894 79.8044ZM29.1092 134.195C29.1568 134.331 29.0784 134.344 29.1849 134.071C29.3115 133.748 29.627 133.264 30.1699 132.817L21.6649 122.494C17.7847 125.691 14.1096 131.809 16.4816 138.603L29.1092 134.195ZM168.171 53.4064C168.77 53.2651 169.254 53.2883 169.535 53.3536C169.776 53.4098 169.743 53.4589 169.661 53.3638L179.818 44.6611C175.689 39.8429 169.52 39.3466 165.102 40.3883L168.171 53.4064ZM44.3429 53.3631C44.2615 53.4582 44.2283 53.4091 44.4695 53.3529C44.75 53.2876 45.2339 53.2644 45.8333 53.4057L48.903 40.3878C44.4845 39.3459 38.3153 39.842 34.1866 44.6603L44.3429 53.3631ZM183.833 132.817C184.376 133.264 184.692 133.748 184.819 134.072C184.925 134.344 184.847 134.332 184.894 134.196L197.522 138.604C199.894 131.81 196.219 125.691 192.338 122.494L183.833 132.817ZM140.955 25.3773C139.932 20.9529 136.749 15.6304 130.586 14.0708L127.305 27.0371C127.181 27.0058 127.209 26.9529 127.367 27.1441C127.55 27.3666 127.785 27.791 127.925 28.3926L140.955 25.3773Z" stroke="#161616" fill="#161616"></path></svg>