<svg width="214" height="214" viewBox="0 0 214 214" fill="none" xmlns="http://www.w3.org/2000/svg"><path d="M44.5815 47.5558C44.5815 31.1407 57.8886 17.8336 74.3038 17.8336H104.026V77.278H74.3038C57.8886 77.278 44.5815 63.9709 44.5815 47.5558V47.5558Z" stroke="#2c2eac" stroke-width="13.375"></path><path d="M163.474 47.5558C163.474 31.1407 150.167 17.8336 133.751 17.8336H104.029V77.278H133.751C150.167 77.278 163.474 63.9709 163.474 47.5558V47.5558Z" stroke="#2c2eac" stroke-width="13.375"></path><path d="M163.474 106.998C163.474 90.5833 150.167 77.2762 133.751 77.2762V77.2762C117.336 77.2762 104.029 90.5833 104.029 106.998V106.998C104.029 123.414 117.336 136.721 133.751 136.721V136.721C150.167 136.721 163.474 123.414 163.474 106.998V106.998Z" stroke="#2c2eac" stroke-width="13.375"></path><path d="M44.5815 106.998C44.5815 90.5833 57.8886 77.2762 74.3038 77.2762H104.026V136.721H74.3038C57.8886 136.721 44.5815 123.414 44.5815 106.998V106.998Z" stroke="#2c2eac" stroke-width="13.375"></path><path d="M44.5815 166.446C44.5815 150.031 57.8886 136.724 74.3038 136.724H104.026V166.446C104.026 182.861 90.7189 196.168 74.3038 196.168V196.168C57.8886 196.168 44.5815 182.861 44.5815 166.446V166.446Z" stroke="#2c2eac" stroke-width="13.375"></path></svg>